<?xml version="1.0" encoding="UTF-8"?>
<svg id="Layer_1" xmlns="http://www.w3.org/2000/svg" version="1.1" viewBox="0 0 512 512">
  <!-- Generator: Adobe Illustrator 29.6.1, SVG Export Plug-In . SVG Version: 2.1.1 Build 9)  -->
  <path d="M213.7351074,140.1384888c.9481812,4.7714233,2.2174683,9.5734253,3.8079224,14.4060059,1.5905151,4.8325806,3.5020752,9.6957397,5.7348633,14.5894775,2.2327881,4.8631592,4.7714233,9.7416382,7.6159058,14.635376,2.8751221,4.9243164,6.0713501,9.8639526,9.5886841,14.8188477,3.517395,4.9549561,7.355957,9.9251709,11.515625,14.9106445,4.1291504,4.9855347,8.5946655,10.0016479,13.3966675,15.0482788,3.1503296-6.7900391,6.1171875-13.350708,8.9004517-19.6820068,2.7527466-6.3312988,5.3067017-12.4179077,7.6618042-18.2598267,2.3857422-5.8419189,4.557312-11.4391479,6.5148315-16.791687,1.9574585-5.3525391,3.7314453-10.4603882,5.3218994-15.3235474,1.5599365-4.8631592,2.9210205-9.4969482,4.083252-13.9013062,1.1622925-4.3737793,2.1257324-8.5181885,2.8903809-12.4331665.7646484-3.8843994,1.3304443-7.5394287,1.6975098-10.9650879.3670044-3.4255981.5352783-6.6065674.5046387-9.5427856l-2.5691528-.4129028c-3.6091919-.3364868-7.2030029-.6270142-10.7815552-.8717041-2.9135742-.2241211-5.8270264-.40979-8.7406006-.5730591l-17.8782349,9.2099609-11.0548096-9.8265381c-1.6339722.0151978-3.2680054.0142822-4.9019775.0426636-3.4868164.0917358-6.9736328.2140503-10.4603882.3670044-3.4868164.1529541-6.958313.3517456-10.4145508.5964355-3.4561768.2446899-6.9124146.5352783-10.3686523.8717041l-3.7620239.5964355h-.1835327c-.3364258,4.7102051-.3517456,9.43573-.0458984,14.1765747.3059082,4.7408447.9481812,9.512207,1.9269409,14.314209Z" fill="#ebebeb"/>
  <path d="M257.5036011,241.5308838c-5.1078491-5.4443359-9.8640137-10.8580322-14.2683716-16.2411499-4.4349365-5.4136963-8.5334473-10.8121338-12.2955322-16.1952515-3.762085-5.3525391-7.1876831-10.6897583-10.2768555-16.0117188-3.0586548-5.3525391-5.7960205-10.6744995-8.2123413-15.9658813s-4.4961548-10.552124-6.239563-15.7823486c-1.7433472-5.2607422-3.1503296-10.4909668-4.2208252-15.6905518-1.039917-5.2302246-1.758728-10.4298096-2.156311-15.598877-.397644-5.1690063-.4588013-10.3227539-.1835327-15.4611816v-1.3763428l-15.9658813,2.156311c-3.6397095,1.2540283-7.1723633,2.5997925-10.5979614,4.0373535-3.4562378,1.4375-6.8054199,2.9821167-10.0475464,4.633728-3.2420654,1.6516724-6.3771362,3.4103394-9.4051514,5.276123-3.0585938,1.8657227-6.0101318,3.838501-8.8546143,5.918335-2.8444824,2.0492554-5.597229,4.2208862-8.2581787,6.5148315-2.6304321,2.2939453-5.1690674,4.6949463-7.6159058,7.2030029-2.4468994,2.477417-4.802002,5.0772705-7.0653687,7.7993774-2.2327881,2.722168-4.3737793,5.5360718-6.4230347,8.4417114l-3.3491821,5.0925903-5.2855225,7.4685059,31.2180786,16.2505493-41.2226562-2.1139526-73.5773315,103.9654541,33.1793823,32.507019,12.6206055-11.3585205-5.3960571,18.4365845,18.4586792,18.0846558,45.3283691-72.6262817c1.5598755,1.2540894,3.043335,2.5998535,4.4502563,4.0373535,1.4069824,1.437561,2.722168,2.9821777,3.9456177,4.6337891,1.2540283,1.6210327,2.4162598,3.3644409,3.4867554,5.2301636,1.0705566,1.8657837,2.0645752,3.8232422,2.9821777,5.8725586.9175415,2.079834,1.758667,4.2514038,2.5233154,6.5147705.7646484,2.2939453,1.4528198,4.6796265,2.0645752,7.1571045.5811157,2.477478,1.0857544,5.0619507,1.5139771,7.75354.4588013,2.6915894.8258057,5.4901733,1.1010742,8.395874l.1835327,2.5691528c.2446899,3.0892334.5505371,6.1019287.9176025,9.038147.3670044,2.9362793.7799072,5.7960205,1.2387085,8.5794067.4588013,2.7832642.9940186,5.4901733,1.6057739,8.1205444.5811157,2.5997925,1.2234497,5.1384277,1.9268799,7.6159058.6729126,2.477478,1.4222412,4.878418,2.2481079,7.2030029.7952271,2.3244629,1.6516113,4.5878296,2.5692139,6.7900391.9481812,2.1716309,1.9421997,4.2667236,2.9821167,6.2854004,1.0093384,2.0186768,2.0951538,3.9609375,3.2573853,5.8265991l5.6890259,8.8546753c36.6113281-62.0282593,65.484436-114.9725342,86.6193237-158.8327637l-1.1928101-1.0093384Z" fill="#ebebeb"/>
  <path d="M461,298l15.7253418,13.696228,16.2746582-15.8447266-89.0509644-125.5705566c-2.079834-3.2421265-4.2667847-6.3771973-6.5606689-9.4051514-2.2940063-3.0280151-4.6949463-5.9337158-7.2030029-8.717041-2.5080566-2.7526855-5.1384277-5.3983765-7.8911743-7.9370117-1.7682495-1.6307373-3.6056519-3.1922607-5.4748535-4.7220459l-24.8193359,6.5003052,8.4152222-17.9524536c-1.9468384-1.1415405-3.9264526-2.2576294-5.9695435-3.3243408-3.4255981-1.8045654-6.958252-3.4868164-10.5979614-5.0466919-3.6702881-1.5598755-7.4476929-2.9974365-11.3320923-4.3126221l-16.3329468-2.156311c-.2140503,6.0560303-1.0857544,12.8613892-2.6150513,20.4161377-1.5292969,7.5852661-3.7162476,15.9199219-6.56073,25.0039673-2.8444824,9.114624-6.3465576,18.9938354-10.5062256,29.6377563-4.159729,10.6439209-8.9769897,22.0524902-14.4518433,34.225708-5.4749146,12.1731567-11.5921021,25.1263428-18.3515625,38.859436-6.7901001,13.7024536-14.237793,28.1849365-22.3430786,43.4473267-8.1052246,15.2318115-16.8681641,31.2435303-26.2885742,48.0351562-9.3898926,16.791687-19.4526367,34.3480225-30.1883545,52.6690063,6.6065674,1.437561,13.1978149,2.6762695,19.7738037,3.7161865,6.6065674,1.039917,13.197876,1.8810425,19.7738037,2.5233765,2.0110474.1954956,4.0220947.3681641,6.0331421.5296631l13.5419922-19.2713013,15.2994385,20.399292c1.5721436-.0065918,3.1450195-.0227661,4.7189331-.0519409,6.5759888-.1223145,13.1672974-.4434204,19.7738037-.9634399,6.5759888-.5199585,13.1672974-1.2234497,19.7738037-2.1104126,6.5759888-.8869629,13.1672363-1.9727783,19.7738647-3.2573853,6.5759888-1.284668,13.1671753-2.7680664,19.7737427-4.4502563l6.5148315-10.0475464c1.1622925-1.8656616,2.2633667-3.8079224,3.3032837-5.8265991,1.0705566-2.0492554,2.0645752-4.159668,2.9821167-6.3312988.9481812-2.1715698,1.8352051-4.4196777,2.6610107-6.7441406.7952271-2.324585,1.5445557-4.7408447,2.2480469-7.2489014.7340698-2.477478,1.3916626-5.0313721,1.9727783-7.6617432.5811157-2.6304321,1.116394-5.3525391,1.6057739-8.1665039.4588013-2.7832642.8717041-5.6430664,1.2387695-8.5793457.2244873-1.8146973.4181519-3.6602783.5968628-5.520752l-22.2370605-23.4390259,24.1773071,6.0443115c.321167-1.6296387.6612549-3.2365723,1.0414429-4.7953491.5810547-2.477478,1.2539673-4.8631592,2.0186157-7.1571045s1.6210327-4.480835,2.5692749-6.56073c.9175415-2.079834,1.9268799-4.0373535,3.0279541-5.8724976,1.0704956-1.8657227,2.2327881-3.6244507,3.4868164-5.276062s2.5845337-3.2115479,3.9914551-4.6796265c1.4069824-1.437561,2.9057007-2.7680054,4.4961548-3.9914551l45.1448364,72.6262817,27.5737915-26.8453369-.5276489-28.4924316Z" fill="#ebebeb"/>
  <metadata>
    <sfw xmlns="http://ns.adobe.com/SaveForWeb/1.0/">
      <slices/>
      <sliceSourceBounds x="23.2" y="98.6" width="469.8" height="304.23" bottomLeftOrigin="true"/>
    </sfw>
  </metadata>
  <metadata><?xpacket begin="﻿" id="W5M0MpCehiHzreSzNTczkc9d"?>
<x:xmpmeta xmlns:x="adobe:ns:meta/" x:xmptk="Adobe XMP Core 9.1-c003 1.000000, 0000/00/00-00:00:00        ">
   <rdf:RDF xmlns:rdf="http://www.w3.org/1999/02/22-rdf-syntax-ns#">
      <rdf:Description rdf:about=""
            xmlns:xmp="http://ns.adobe.com/xap/1.0/"
            xmlns:xmpGImg="http://ns.adobe.com/xap/1.0/g/img/"
            xmlns:xmpTPg="http://ns.adobe.com/xap/1.0/t/pg/"
            xmlns:stDim="http://ns.adobe.com/xap/1.0/sType/Dimensions#"
            xmlns:xmpG="http://ns.adobe.com/xap/1.0/g/"
            xmlns:illustrator="http://ns.adobe.com/illustrator/1.0/"
            xmlns:dc="http://purl.org/dc/elements/1.1/">
         <xmp:CreatorTool>Adobe Illustrator 29.6 (Windows)</xmp:CreatorTool>
         <xmp:CreateDate>2025-10-01T23:11:12+02:00</xmp:CreateDate>
         <xmp:Thumbnails>
            <rdf:Alt>
               <rdf:li rdf:parseType="Resource">
                  <xmpGImg:width>256</xmpGImg:width>
                  <xmpGImg:height>168</xmpGImg:height>
                  <xmpGImg:format>JPEG</xmpGImg:format>
                  <xmpGImg:image>/9j/4AAQSkZJRgABAgEAAAAAAAD/7QAsUGhvdG9zaG9wIDMuMAA4QklNA+0AAAAAABAAAAAAAAEA&#xA;AQAAAAAAAQAB/+4ADkFkb2JlAGTAAAAAAf/bAIQABgQEBAUEBgUFBgkGBQYJCwgGBggLDAoKCwoK&#xA;DBAMDAwMDAwQDA4PEA8ODBMTFBQTExwbGxscHx8fHx8fHx8fHwEHBwcNDA0YEBAYGhURFRofHx8f&#xA;Hx8fHx8fHx8fHx8fHx8fHx8fHx8fHx8fHx8fHx8fHx8fHx8fHx8fHx8fHx8f/8AAEQgAqAEAAwER&#xA;AAIRAQMRAf/EAaIAAAAHAQEBAQEAAAAAAAAAAAQFAwIGAQAHCAkKCwEAAgIDAQEBAQEAAAAAAAAA&#xA;AQACAwQFBgcICQoLEAACAQMDAgQCBgcDBAIGAnMBAgMRBAAFIRIxQVEGE2EicYEUMpGhBxWxQiPB&#xA;UtHhMxZi8CRygvElQzRTkqKyY3PCNUQnk6OzNhdUZHTD0uIIJoMJChgZhJRFRqS0VtNVKBry4/PE&#xA;1OT0ZXWFlaW1xdXl9WZ2hpamtsbW5vY3R1dnd4eXp7fH1+f3OEhYaHiImKi4yNjo+Ck5SVlpeYmZ&#xA;qbnJ2en5KjpKWmp6ipqqusra6voRAAICAQIDBQUEBQYECAMDbQEAAhEDBCESMUEFURNhIgZxgZEy&#xA;obHwFMHR4SNCFVJicvEzJDRDghaSUyWiY7LCB3PSNeJEgxdUkwgJChgZJjZFGidkdFU38qOzwygp&#xA;0+PzhJSktMTU5PRldYWVpbXF1eX1RlZmdoaWprbG1ub2R1dnd4eXp7fH1+f3OEhYaHiImKi4yNjo&#xA;+DlJWWl5iZmpucnZ6fkqOkpaanqKmqq6ytrq+v/aAAwDAQACEQMRAD8A9U4q7FXYq7FXYq7FXYq7&#xA;FXYqtkkjjXk7BR4nFUFNqqDaJeX+UdhiqHbVLo9OK/If1riqY3Lstq7A0bj1GKpKZpT1dj8ycVWk&#xA;k9TXFV0cjxuHQ0YYqjm1Y+mOKfvO5PT6MVQUk80jcnck4q4TzDpIw+ROKp4WK25Y9Qla+4GKpWuq&#xA;XQ68W+Y/pTFURDqyHaVeP+UNxiqNjkjkXkjBh4jFV2KuxV2KuxV2KuxV2KuxV2KuxV2KuxV2KuxV&#xA;2KuxV2KoG61JUqkNGbu3Yf1xVLZJZJG5OxY++KrcVdiqeS/HZtTvHUfdXFUjxV2KuxV2KuxVdEnO&#xA;RE/mIH3nFU5vn4Wkh8RT79sVSTFXYqrWYlNwixsVJO5Hh3xVPMVdirsVdirsVdirsVdirsVdirsV&#xA;dirsVdirsVdiqV31+ZCY4jRP2m8f7MVQOKuxV2KuxVO7Jg9pHXsOJ+jbFUmkQpIyHqpI+7FVuKux&#xA;V2KuxVFabHzugeyAsf1YqidWkpGkf8xqfo/28VSzFXYqrW9y0BYooLNtU9hircl7dP1kIHgu36sV&#xA;V7LUChEcxqnZj2xVNMVdirsVdirsVdirsVdirsVdirsVdirsVS7UrvcwIf8AXP8ADFUuxV2KuxV2&#xA;KuxVMtJl+F4j2+IfqOKqOqQ8ZxIOjjf5jFUHirsVdirsVTTSouMTSHq5oPkMVQmoy87pvBPhH0dc&#xA;VQ2KuxV2KuxV2Kpjpt3WkDn/AFD/AAxVMcVdirsVdirsVdirsVdirsVdirsVWTtIsTGJeT02GKpC&#xA;3LkeVeXevWuKtYq7FXYq7FXYqq2s3ozq/YGjfI4qm13AJ7cgbsPiQ++KpJirsVdirlUswUbkmgGK&#xA;p6eNta+0a/ef9vFUiJJJJ6nrirsVdirsVdirsVcCQQRsRuDiqd2dyJ4qn7a7OP44qr4q7FXYq7FX&#xA;Yq7FXYq7FXYq1I6xoXY0VdziqEGq23g4+gf1xVZNdafOKSA17NTcYqgJkhU1ik5r4EEEfwxVTxV2&#xA;KuxV2KuxVNtNuPUi9Nj8adPdcVQ2pW3CT1VHwP19j/biqCxV2KovTIec/M/Zj3+k9MVRGrTURYh1&#xA;b4m+Q6YqlmKuxV2KuxV2KuxV2KqltO0EocdOjDxGKp6jq6B1NVbcHFW8VdirsVdirsVdirsVdiqV&#xA;ajdeo/pIfgU7nxOKoLFXYq7FXYq7FXYq7FXYqvgmaGVZF6jt4jFU7BiuIPFHGKpLcW7wSFG6fsnx&#xA;GKqeKpzYQ+lbCuzN8TYqld1N607P2JovyHTFVLFXYq7FXYq7FXYq7FXYqjdOuvTf0nPwMdj4HFU1&#xA;xV2KuxV2KuxV2KuxVCahdeknpof3j/gMVSjFXYq7FXYq7FXYq7FXYq7FXYqirC79F+Dn923X2Pji&#xA;qZXNulxHxPXqreGKpZb2jm7ETinHd/kP64qj9Rm9O3Kj7Unwj5d8VSfFXYq7FXYq7FXYq7FXYq7F&#xA;XYqm+n3Xqx8GP7xPxHjiqLxV2KuxV2KuxVTnmWGIyN26DxPhiqRyyNI5djVmxVbirsVdirsVdirs&#xA;VdirsVdirsVdiqYafe0pDIdv2GP6sVTLiK8qb9K4qkt/P6twafZT4V+jriqHxV2KuxV2KuxV2Kux&#xA;V2KuxV2KropHikDoaMuKp7BMs0QkXv1HgfDFV+KuxV2KuJAFT0xVJr66M8tB/drsvv74qhsVdirs&#xA;VdirsVdirsVdirsVdirsVdiqrawGaZU7dW+QxVNb2cQ25I2ZvhXFUlxV2KuxV2KuxV2KuxV2KuxV&#xA;2KuxV2KomxuvQlox/dts3t74qnPXFXYq7FUv1O6oPQQ7n7Z9vDFUtxV2KuxV2KuxV2KuxV2KuxV2&#xA;KuxV2KuxVNtMg4Q+oR8UnT5dsVQeoz+rOVH2U2Hz74qhcVdirsVdirsVdirsVdirsVdirsVdirsV&#xA;TPTLqo9BzuPsH28MVR+KqN3ciCIt+2dkHviqSMxZizGpO5OKtYq7FXYq7FXYqukjeNuLgq3gcVW4&#xA;q7FXYq7FXYq7FVW1gM0yp26sfYYqmt5OILcldmPwoMVSXFXYq7FXYq7FXYq7FXYqujjkkbiilm8B&#xA;iq3FXYq7FXYq7FW1YqwZTQjcHFU7tLkTxBv2xs498VSq8mkknYuCvHYKewxVQxV2KuxV2KuxVG6b&#xA;bepJ6rD4E6e5/sxVG3tqJ4jQfvF3U/wxVJcVdirsVdirsVdiqb6bb+nDzYfHJv8AR2xVA6hcerOQ&#xA;PsJsv8TiqGxV2KuxV2KuxV2KuxV2Kp3Z2wgiAP8AeNu5/hiqB1O24Seqo+F+vsf7cVQWKuxV2Kux&#xA;V2Kq9nNJHOpQFuWxUdxiqZXlms68l2lHQ+PscVSdlZGKsKMNiDirWKuxV2KroomlkVF6tiqfRRLF&#xA;GqL0XFV2KpNqEXp3LU6N8Q+nr+OKobFXYq7FXYqr2Vv604U/YG7fLFUyv7j0YCF2d/hX+JxVJsVd&#xA;irsVdirsVdirsVcQRscVROnRepcrXonxH6OmKpziq2WNZY2RujDFUhliaKRo26qcVW4q7FVW0/3p&#xA;i/1h+vFUbeadU84Bueqf0xVXs7NYF5NvKep8PYYqicVQ95ZpOtRtIOjfwOKpdDYyEs0oKRx15Hua&#xA;eGKoY9cVdiqa6bbenH6rD436ewxVG4q7FUu1df7t/mDiqXYq7FXYq7FU5sbf0YPi2dt2/piqW3tx&#xA;605YfYGy/LFVDFXYq7FXYq7FXYq7FUws7mKUCG4AY9EZhX6MVRsVtDExaNeJbriqrirsVQWpW3qR&#xA;+qo+NOvuMVSrFXYqq2oJuYqCvxA7eFcVT3FXYq7FXYqp3EbSwPGpoWFAcVSOSN43KOKMOoxVWsbb&#xA;15d/7td2/piqdYq7FXYqgtWFbdT4N/A4qlWKuxV2KorTrf1ZuTD4E3PuewxVGalcenF6an45P1d8&#xA;VSnFXYq7FXYq7FXYq7FXYq7FU50+WSW3q5qQeIPiBiqJxV2KuxVJb629CXb+7bdf6YqoxxvI4RBV&#xA;j0GKpxaWiW6eMh+038BiqIxV2KuxV2KuxVD3dolwnhIPst/A4qvtYFghCDr1Y+JxVVxV2KuxVD6g&#xA;nK0fxFD9xxVJcVdirgCxAAqTsBiqeW8SW1vQmlByc+/fFUnuJjNM0h79B4DFVPFXYq7FXYq7FXYq&#xA;7FXYq7FU609ONonian7ziqIxV2KuxVSuoBPCUPXqp8Diq21tEt023c/abFVfFXYq7FXYq7FXYq7F&#xA;XYq7FXYq7FWnQOjIejAg/TirH2UqxU9QaH6MVaxVH6XbcmMzDZdl+eKr9UuKAQKdzu/y7DFUtxV2&#xA;KuxV2KuxV2KuxV2KuxVtVLMFHUmg+nFWQIgRFQdFAA+jFW8VdirsVdirsVdirsVdirsVdirsVdir&#xA;sVdirsVdirsVSjUoeE/MfZk3+nviqGiiaWRY16scVTsmO2t/8lBsPE/24qkkjtI7O27ManFVuKux&#xA;V2KuxV2KuxV2KuxV2KovTIec/M/Zj3+ntiqb4q7FXYq7FXYq7FXYq7FXYq7FXYq7FXYq7FXYq7FX&#xA;Yq7FVK6txPCU/a6qffFUPptqY1MjijtsAewxVD6nc85PSU/CnX3b+zFUFirsVVIIWmlCL36nwGKr&#xA;rq2aCUqd1O6t4jFVHFXYq7FXYq7FW1VmYKoqSaAYqnlrAIIQg69WPicVVcVdirsVdirsVdirsVdi&#xA;rsVdirsVdirsVdirsVdirsVdirsVdiqFfTbVzWhUnuD/AFriqi2kL+zIR8xXFVJtJn7Op+8fwxVG&#xA;2VqII995G+0f4YqvubdZ4ih2PVT4HFUr/Rt3/J+I/riq4aZdHsB8ziq9dJn/AGnUfKpxVUXSF/ak&#xA;J+Qpiqsmm2q9VLfM/wBKYqiEhiT7CBfkMVXYq7FXYq7FXYq7FXYq7FXYq7FX/9k=</xmpGImg:image>
               </rdf:li>
            </rdf:Alt>
         </xmp:Thumbnails>
         <xmpTPg:MaxPageSize rdf:parseType="Resource">
            <stDim:w>512.000000</stDim:w>
            <stDim:h>512.000000</stDim:h>
            <stDim:unit>Pixels</stDim:unit>
         </xmpTPg:MaxPageSize>
         <xmpTPg:NPages>1</xmpTPg:NPages>
         <xmpTPg:HasVisibleTransparency>False</xmpTPg:HasVisibleTransparency>
         <xmpTPg:HasVisibleOverprint>False</xmpTPg:HasVisibleOverprint>
         <xmpTPg:PlateNames>
            <rdf:Seq>
               <rdf:li>Cyan</rdf:li>
               <rdf:li>Magenta</rdf:li>
               <rdf:li>Yellow</rdf:li>
            </rdf:Seq>
         </xmpTPg:PlateNames>
         <xmpTPg:SwatchGroups>
            <rdf:Seq>
               <rdf:li rdf:parseType="Resource">
                  <xmpG:groupName>Default Swatch Group</xmpG:groupName>
                  <xmpG:groupType>0</xmpG:groupType>
               </rdf:li>
            </rdf:Seq>
         </xmpTPg:SwatchGroups>
         <illustrator:IsFileSavedViaInstantSave>False</illustrator:IsFileSavedViaInstantSave>
         <dc:format>image/svg+xml</dc:format>
      </rdf:Description>
   </rdf:RDF>
</x:xmpmeta>
                                                                                                    
                                                                                                    
                                                                                                    
                                                                                                    
                                                                                                    
                                                                                                    
                                                                                                    
                                                                                                    
                                                                                                    
                                                                                                    
                                                                                                    
                                                                                                    
                                                                                                    
                                                                                                    
                                                                                                    
                                                                                                    
                                                                                                    
                                                                                                    
                                                                                                    
                                                                                                    
                           
<?xpacket end="w"?>
  </metadata>
</svg>