<?xml version="1.0" encoding="UTF-8"?>
<svg id="svg774" xmlns="http://www.w3.org/2000/svg" version="1.1" xmlns:inkscape="http://www.inkscape.org/namespaces/inkscape" xmlns:sodipodi="http://sodipodi.sourceforge.net/DTD/sodipodi-0.dtd" xmlns:svg="http://www.w3.org/2000/svg" viewBox="0 0 512 512">
  <!-- Generator: Adobe Illustrator 29.6.1, SVG Export Plug-In . SVG Version: 2.1.1 Build 9)  -->
  <sodipodi:namedview id="namedview776" bordercolor="#ffffff" borderopacity="1" inkscape:deskcolor="#505050" inkscape:pagecheckerboard="1" inkscape:pageopacity="0" inkscape:showpageshadow="0" pagecolor="#505050" showgrid="false"/>
  <g>
    <path d="M374.8795978,142.5805804c.1469475.6979865.2571511,1.4327028.4040985,2.1674261l9.0003152-4.9961018-7.6043563,17.1924613c.3306108,7.126784-.1469475,14.5842068-1.4327028,22.3722404-1.7265977,11.4983801-3.1960444,22.2987667-4.4083119,32.3277001-.9918604,9.0738029-1.7265977,17.4496123-2.204156,25.1641722-.3673547,6.9798505-.551046,13.3351814-.551046,19.1027363.1102036,5.1430492.3673547,9.8085122.7347093,13.9597011.2571511,3.563399.6612496,6.7961592,1.2857553,9.7350525.3306108,1.5061905.7347093,2.8654055,1.1388078,4.2613925l25.5682707-5.6940952.0734597.4040985c-.2571511-2.0572085-.4775582-4.1879047-.6612496-6.5022643-.2571511-3.6736026-.4408424-7.6043563-.551046-11.7555311-.1102036-4.7756806-.1102036-9.7350525,0-14.8780877.1102036-5.8777586.4408424-11.8657347.9184006-18.0006583.4775582-6.9798505,1.2122956-14.1433644,2.204156-21.4905696.9918604-7.9717109,2.204156-16.163857,3.6736026-24.6131402,3.0490969-13.9596871,3.3062479-27.5520195.7347093-40.7769902-2.461307-12.3800438-7.2370016-23.8049432-14.3270557-34.3481857-6.8696469-10.1758809-15.35566-18.9925257-25.5315269-26.449938-10.1758669-7.3472052-21.3069063-12.7841389-33.429778-16.3475309-12.2331034-3.5633955-24.6866139-4.9593632-37.287072-4.2246416-13.2249638.8449269-25.7886919,4.1144345-37.6544266,9.7350455-5.8410287,2.7184651-11.3881625,5.9879727-16.6781592,9.7717824l-10.7269129,24.0988311,1.8000714-17.0087805c-3.0858267,2.7184686-6.0614499,5.5838741-8.8901256,8.6697009-11.1310114,12.0126822-20.3884916,26.5234082-27.7356968,43.5321922-2.6817282,6.1349166-4.2981083,12.7473985-4.7756806,19.8374526-.4775723,6.5022783-.0734737,13.5188587,1.2857553,21.1232149,1.2122956,6.6124819,3.2327742,13.8862133,6.0614499,21.8579383,2.0939524,6.2451272,4.8858982,13.2249638,8.3758094,20.9762675l18.919059,14.6576805-11.6453135.9184006c1.2490254,2.6082545,2.5715246,5.4002003,4.0042274,8.4492832,5.1430492,10.5432355,8.7431781,18.1108619,10.8371305,22.7763249,3.7838062,8.4492972,6.9063768,15.906706,9.3676838,22.4089702,2.9388793,7.9717109,5.0695755,15.2454564,6.4288045,21.8579243.6245057,18.8455712-1.9470049,34.825765-7.7145599,47.9405251-5.2532528,12.0126682-12.8576091,21.0497552-22.7763389,27.1846648-9.1840065,5.767555-19.7639859,8.6329605-31.7766681,8.6329605s-22.8865425-2.5715106-34.531863-7.7145599c-11.7555311-5.2532528-22.2987667-12.5637142-31.5929838-21.8579243-9.6615788-9.8085122-17.0822507-20.9395236-22.2252964-33.429778-5.4001968-13.5923184-7.6410931-27.8459144-6.7961662-42.7974759.8816638-14.6944104,4.8124209-29.5357683,11.7922645-44.5608034l-10.4330319-1.9837488c-8.228869,17.3394088-12.8576091,34.4583963-13.8127466,51.3202188-.9184006,16.3842642,1.5429134,31.9236156,7.3472052,46.6547418l5.5838776-14.0699047-2.7184651,20.5721689c6.0247095,12.4167667,14.2168451,23.5110622,24.7233438,33.3195745,11.1310184,10.2860985,23.7682063,18.1843217,37.838111,23.6947256,14.0698907,5.4002003,28.0295918,7.8247634,41.8790612,7.3472052,14.4372593-.6245057,27.4418159-4.4083119,38.9401819-11.3881625,9.8085122-6.0981938,17.8537109-14.253568,24.2090417-24.4294629l-10.8738603-6.1349096,20.2415442-14.0331608c4.2246486-12.7841494,6.4288045-27.3683282,6.6124819-43.7526204-.3673547-6.7226995-1.653124-13.8862133-3.8572799-21.4905696-1.7265977-6.5022643-4.2246486-13.5923184-7.5308825-21.3069063-2.461307-5.9879762-5.6940812-13.0412864-9.7350525-21.1232149,7.2370016,14.804614,3.7470763,7.8247775-10.4697618-20.9395376-4.0409573-8.0819285-7.2370016-14.8780877-9.5513612-20.3884916-3.0490969-7.3472052-5.4369302-14.0331608-7.1635279-20.021137-1.9470049-6.8696329-3.012353-13.2249638-3.1225566-19.1027363-.2571511-6.5022783.4775723-12.5637142,2.204156-18.1843357,3.7838062-12.0126822,9.2942101-22.5926546,16.5312117-31.7766611,6.7226995-8.5594938,14.6944104-15.612811,23.8784169-21.1232149,8.8166518-5.2532528,18.2578094-8.8166448,28.2867288-10.6534461,9.8085122-1.8368013,19.5435647-2.0204821,29.2051295-.551039,9.6615647,1.4694396,18.6251641,4.5185295,26.8173102,9.1840065,8.5595008,4.7756806,15.7230146,11.0208078,21.4905696,18.7353747,5.9879621,8.0819285,10.1758669,17.3761386,12.4902544,27.9193812l-.1101475.0367789Z" fill="#e5e5e5" fill-rule="evenodd"/>
    <path d="M87.4201945,227.8081635c-.2571511-1.2122956,0,.0734737.7347198,3.8572799.3673617,1.359229.551039,2.461307.551039,3.3062479.1102071.9918744.1102071,1.910275,0,2.7552019l9.9187263,2.9388793c0-.3673547.3673617-.7347233,1.102078-1.102078.6245127-.1102036,1.5796502-.3673547,2.9388793-.7347233,2.6817282-.6245057,4.114438-.9918744,4.2246416-1.102078,1.9470119-.4775723,3.7470763-.9918744,5.3267266-1.4694466,2.0939524-.8449269,3.9674905-1.7265977,5.6940812-2.5715246,2.0939524-1.2122956,4.0409643-2.5715246,5.8777656-4.0409573,1.9470119-1.7265977,3.7470763-3.6001289,5.3267266-5.6940812,1.8368013-2.3143736,3.3797147-4.9593579,4.5920032-7.8982512.3673617-.9918744.1102106-2.204156-.7347233-3.6736026-.7347233-1.359229-2.0204786-2.8286757-3.8572799-4.4083259-1.7265907-1.7265977-3.7838132-3.3797077-6.2451272-4.9593579-1.9837488-1.3959729-4.0042274-2.6449984-6.0614429-3.8572799l-9.9187298,14.5474629v-19.470091c-2.5347878-1.1388219-4.9593649-1.9470049-7.1635279-2.4245772-2.3143666-.4775723-4.2981153-.6612496-5.8777656-.551046-1.8368013.3673547-3.0490899,1.102078-3.6736026,2.204156-.9918744,3.3062479-1.7633276,6.5022783-2.3878403,9.5513612-.4775688,2.8286757-.8449269,5.5104039-1.1020815,8.0819285-.2571511,2.3143736-.3673617,4.5920032-.3673617,6.7961592l.3673617,5.5104039c.2571511,1.359229.4775688,2.8286757.7347338,4.4083399Z" fill="#e5e5e5" fill-rule="evenodd"/>
    <polygon points="409.1910327 438.746432 414.4442855 450.0243909 426.9712838 447.3793925 426.9712838 424.5295799 437.7716844 445.1017488 440.4533986 444.5507028 422.8568388 366.4499317 413.5993726 371.1888825 420.9098339 357.8169432 412.5340245 320.5666151 413.5993726 325.26885 374.1448885 331.5139632 373.0427965 326.4444017 400.2274614 453 409.1910327 451.1264548 409.1910327 438.746432" fill="#e5e5e5" fill-rule="evenodd"/>
    <path d="M414.9218718,318.1787958c.7347093-1.102092,1.2122956-2.461307,1.4694466-4.0409573s.2938949-3.3062479.1836913-5.1430492c-.1102036-1.9470049-.4408424-3.8572939-.9184006-5.6940952-.6245057-1.9470049-1.3592431-3.7838062-2.204156-5.5104039-1.102092-1.8368013-2.3143595-3.4164515-3.6736026-4.7756946-1.4694466-1.4694466-3.0490969-2.6449984-4.7756946-3.4899113-1.9470049-.8449409-4.0409573-1.3592431-6.2451132-1.4694466-.2571511-.2571511-.4775582-.9918604-.7347093-2.204156-.0734597-.551046-.1836913-1.1755517-.2938949-1.8000574l-24.5029226,5.6573514c.4775582,1.2122956.8081971,2.0939524.9184006,2.5715106-2.3143595,1.102092-4.2981083,2.461307-5.8777586,4.0409573-1.5796502,1.4694466-2.8654055,3.1960444-3.8572939,5.1430492-.8449409,1.8368013-1.4694466,3.7838062-1.8368013,5.8777586-.2571511,1.8368013-.2571511,3.7470623,0,5.6940952.2571511,1.9470049.6612496,3.7838062,1.2857553,5.5104039.6245057,1.5796502,1.3959589,3.012353,2.3878473,4.2246486.9918604,1.3592431,2.0204926,2.3143595,3.1225566,2.9388933,1.2122956.6245057,2.461307.8449409,3.6736026.7347093l39.4912279-5.8777586c.9918604-.4775582,1.7633416-1.2857553,2.3878193-2.3878473Z" fill="#e5e5e5" fill-rule="evenodd"/>
  </g>
  <metadata>
    <sfw xmlns="http://ns.adobe.com/SaveForWeb/1.0/">
      <slices/>
      <sliceSourceBounds x="71.55" y="59" width="368.91" height="394" bottomLeftOrigin="true"/>
    </sfw>
  </metadata>
  <metadata><?xpacket begin="﻿" id="W5M0MpCehiHzreSzNTczkc9d"?>
<x:xmpmeta xmlns:x="adobe:ns:meta/" x:xmptk="Adobe XMP Core 9.1-c003 1.000000, 0000/00/00-00:00:00        ">
   <rdf:RDF xmlns:rdf="http://www.w3.org/1999/02/22-rdf-syntax-ns#">
      <rdf:Description rdf:about=""
            xmlns:xmp="http://ns.adobe.com/xap/1.0/"
            xmlns:xmpGImg="http://ns.adobe.com/xap/1.0/g/img/"
            xmlns:xmpTPg="http://ns.adobe.com/xap/1.0/t/pg/"
            xmlns:stDim="http://ns.adobe.com/xap/1.0/sType/Dimensions#"
            xmlns:xmpG="http://ns.adobe.com/xap/1.0/g/"
            xmlns:illustrator="http://ns.adobe.com/illustrator/1.0/"
            xmlns:dc="http://purl.org/dc/elements/1.1/"
            xmlns:xmpMM="http://ns.adobe.com/xap/1.0/mm/">
         <xmp:CreatorTool>Adobe Illustrator 29.6 (Windows)</xmp:CreatorTool>
         <xmp:CreateDate>2025-10-02T01:40:43+02:00</xmp:CreateDate>
         <xmp:Thumbnails>
            <rdf:Alt>
               <rdf:li rdf:parseType="Resource">
                  <xmpGImg:width>240</xmpGImg:width>
                  <xmpGImg:height>256</xmpGImg:height>
                  <xmpGImg:format>JPEG</xmpGImg:format>
                  <xmpGImg:image>/9j/4AAQSkZJRgABAgEAAAAAAAD/7QAsUGhvdG9zaG9wIDMuMAA4QklNA+0AAAAAABAAAAAAAAEA&#xA;AQAAAAAAAQAB/+4ADkFkb2JlAGTAAAAAAf/bAIQABgQEBAUEBgUFBgkGBQYJCwgGBggLDAoKCwoK&#xA;DBAMDAwMDAwQDA4PEA8ODBMTFBQTExwbGxscHx8fHx8fHx8fHwEHBwcNDA0YEBAYGhURFRofHx8f&#xA;Hx8fHx8fHx8fHx8fHx8fHx8fHx8fHx8fHx8fHx8fHx8fHx8fHx8fHx8fHx8f/8AAEQgBAADwAwER&#xA;AAIRAQMRAf/EAaIAAAAHAQEBAQEAAAAAAAAAAAQFAwIGAQAHCAkKCwEAAgIDAQEBAQEAAAAAAAAA&#xA;AQACAwQFBgcICQoLEAACAQMDAgQCBgcDBAIGAnMBAgMRBAAFIRIxQVEGE2EicYEUMpGhBxWxQiPB&#xA;UtHhMxZi8CRygvElQzRTkqKyY3PCNUQnk6OzNhdUZHTD0uIIJoMJChgZhJRFRqS0VtNVKBry4/PE&#xA;1OT0ZXWFlaW1xdXl9WZ2hpamtsbW5vY3R1dnd4eXp7fH1+f3OEhYaHiImKi4yNjo+Ck5SVlpeYmZ&#xA;qbnJ2en5KjpKWmp6ipqqusra6voRAAICAQIDBQUEBQYECAMDbQEAAhEDBCESMUEFURNhIgZxgZEy&#xA;obHwFMHR4SNCFVJicvEzJDRDghaSUyWiY7LCB3PSNeJEgxdUkwgJChgZJjZFGidkdFU38qOzwygp&#xA;0+PzhJSktMTU5PRldYWVpbXF1eX1RlZmdoaWprbG1ub2R1dnd4eXp7fH1+f3OEhYaHiImKi4yNjo&#xA;+DlJWWl5iZmpucnZ6fkqOkpaanqKmqq6ytrq+v/aAAwDAQACEQMRAD8A9U4q7FXYq7FXYq7FXYq7&#xA;FXYq7FXYq7FXYq7FVsksca8nYKPfFUDNqyjaJK/5TdPuxVCSX90/7ZUeC7Yqos7t9pifma4q1ira&#xA;u6/ZYj5GmKqyX10nSQkeDb/rxVFRasOkqf7Jf6HFUdFPFKKxsG/X92Kr8VdirsVdirsVdirsVdir&#xA;sVdirsVdirsVdirsVdirsVdirsVdiqFvr0wAKgrI2+/YYqlMkjyNydizHucVW4q7FXYq7FXYq7FX&#xA;Yq2rsjBlJDDoRiqY2upg0SfY9n/riqYAgio6Yq7FXYq7FXYq7FXYq7FXYq7FXYq7FXYq7FXYq7FX&#xA;Yq7FUE19zukijPwA/G/jQV+7FUuuZjNM0nYnb5dsVU8VXxQyymkalj+GKo2LSWO8r09l3/E4qiF0&#xA;20Xqpb5k/wAKYqqfUrX/AH2MVWtp9of2KfInFVCTSUP925B8G3xVBT2k8O7r8P8AMNxiqjirsVRd&#xA;lfNCQj7xH8MVTcEEAg1B6HFXYq7FXYq7FXYq7FXYq7FXYq7FXYq7FXYq7FXYql+o3nEGGM7n7Z9v&#xA;DFUuVitSOpBH37Yq1iqPtNNLUefZeydz88VTJUVFCqAqjoBireKuxV2KuxV2KuxVAXemqwLwijd0&#xA;7H5YqlhBBIIoR1GKuxVH6bd8SIHPwn7B8D4YqmeKuxV2KuxV2KuxV2KuxV2KuxV2KuxV2KuxVRu7&#xA;gQQlv2jso98VSMkkkk1J3JxV2Kpnp9kABNKPiO6Ke3viqPxV2KuxV2KuxV2KuxV2KuxVA6laBlMy&#xA;D4h9seI8cVSvFXdMVTuzuPWgDH7Q2b54qr4q7FXYq7FXYq7FXYq7FXYq7FXYq7FXYqk1/cetOaH4&#xA;E2X+JxVDYqitPtvVl5MP3adfc+GKpxirsVdirsVdirsVdirsVdirsVdiqR3kHozsg+yd1+RxVRxV&#xA;GaXLxnMZ6OPxG+KptirsVdirsVdirsVdirsVdirsVdirsVUL2b0rdmGzH4V+ZxVJMVdiqe2sIhgV&#xA;O/VvmcVVcVdirsVdirsVdirsVdirsVdirsVQOqQs6xsiktXjQbnffFUtkjaN+DfaHUdaYq6J+EqP&#xA;/KQcVZBirsVdirsVdirsVdirsVdirsVdirsVS7V3/u0+ZOKpdiqIsI/UukB6L8R+jFU6xV2KuxV2&#xA;KuxV2KuxV2KuxV2KuxV2KrZZBHGznooriqQOxdizdWNT9OKtYqyCI1iQ+Kg/hiq7FXYq7FXYq7FX&#xA;Yq7FXYq7FXYq7FUs1f8AvI/kf14qgMVRukj9+5/yf4jFU1xV2KuxV2KuxV2KuxV2KuxV2KuxV2Ko&#xA;e/NLST6P1jFUlxV2Kp/CKQoPBR+rFV+KuxV2KuxV2KuxV2KuxV2KuxV2Kpdq6/3TfMH8MVS7FUZp&#xA;TUuSP5lI/UcVTbFXYq7FXYq7FXYq7FXYq7FXYq7FXYqhNTalqR/MQP4/wxVKMVbVSzBR1Jp9+Ksh&#xA;AoKYq7FXYq7FVOa4hhAMjUr0HXFWoru3kNEcE+B2P44qq4q7FXYq7FXYq7FULqUfO1Y90Ib+GKpP&#xA;iqrayencI/YHf5HY4qnuKuxV2KuxV2KuxV2KuxV2KuxV2KuxVL9Xb4I18ST93+3iqW4qr2S8rqMe&#xA;Br92+Kp3irsVdirsVSnVH5XPHsigfSd8VQ9t/vRF/rr+vFUzu78QOqKOTdXHgMVVoLmKdaodx1U9&#xA;RiqrirsVdirsVaZQylT0IofpxVIJEKSMh6qSPuxVbiqeWU3q26N3Hwt8xiqtirsVdirsVdirsVdi&#xA;rsVdirsVdiqV6s1ZkXwWv3nFUDiqM0ta3JP8qk/wxVNsVdirsVdiqSXxrdyfOn3DFVGNykiuNypB&#xA;A+WKud2dizGrE1JxVuKV4pA6GjDFWQA1APSvbFXYq7FXYq7FUr1WHjKJR0cUPzGKoHFUbpc/GUxH&#xA;o/T5jFU1xV2KuxV2KuxV2KuxV2KuxV2KuxVJtSat2w8AB+FcVQ2KphpC/FK3gAPvriqZYq7FXYq7&#xA;FUl1BeN2/vQ/eMVQ+KuxVHafZl2E0gog3UHucVTTFXYq7FXYq7FVk8CTRlH6dQR2OKpNc2ksDfFu&#xA;h6OOmKqSsVYMpoQag4qn0EomiWQdxuPA98VX4q7FXYq7FXYq7FXYq7FXYq7FUjvTW6lP+VT7tsVU&#xA;cVTPSB+6kPiwH3DFUfirsVdirsVQV9YyTSCRCNhQg/PFUNHpdw32yEH3n8MVRcOmwRmrfvGHj0+7&#xA;FUXirsVdirsVdirsVdiqDv7poiEMYdHHU4qlJIJJAoPDFUdpc/FzCTs+6/PFU0xV2KuxV2KuxV2K&#xA;uxV2KuxV2KpBcGs8h8Wb9eKrMVTbSh/oze7n9QxVGYq7FXYqsnlEULSH9kbfPtiqUWr3ElwqrIw5&#xA;GrUJ6dTiqdYq7FXYq7FXYq7FXYq7FXYqoXsHrQED7S/EvzGKpJirasVYMuxBqD8sVT6CYTRLIO43&#xA;Hge+Kr8VdirsVdirsVdirsVdirsVY/Kayuf8o/rxVbiqbaV/vMf9Y/qGKozFXYq7FUv1aWipEO/x&#xA;H9QxVrSYvtyn/VH6ziqY4q7FXYq7FXYq7FXYq7FXYq7FUm1CD0rg0+y/xD+OKobFUfpU9HaEnZt1&#xA;+Y64qmeKuxV2KuxV2KuxV2KuxV2KpBMKTOPBj+vFVmKptpX+8x/1j+oYqjMVdirsVSXUH53T+C0U&#xA;fRiqZWCcLRPE/EfpxVEYq7FXYq7FXYq7FXYq7FXYq7FULqMPqW5I+0nxD5d8VSfFV0bmORXXqpri&#xA;qfowdAy9GFR9OKt4q7FXYq7FXYq7FXYq7FUjvF43Uo/yifv3xVRAJNAKnwGKptpiSJCwdSvxVFRT&#xA;sMVRmKuxV2KsflblK7eLE/ecVT6IcYkXwUD8MVXYq7FXYq7FXYq7FXYq7FXYq7FXYqkNzF6U7p2B&#xA;2+R6Yqp4qm+mS87fieqGn0HfFUXirsVdirsVdirsVdirsVQl39TicSTJydunfp+GKoc6oqikMIUe&#xA;/wDQYq6DVWDH1hVT04jpiqYQzRzLyjNR39sVX4q7FWO4qyFPsL8hireKuxV2KuxV2KuxV2KuxV2K&#xA;uxV2Kpdq0W6Sj/VP6xiqXYqjdJekzJ2Za/SMVTXFXYq7FXYq7FXYq7FVO5nEMLSHcjoPc4qkckjy&#xA;OXc1Y98VW4q7FVaznMM6tX4Ts49sVTzFXYqx0ihI8NsVT63blbxt4qP1YqqYq7FXYq7FXYq7FXYq&#xA;7FXYq7FXYqh9QQNaP4ihH0HFUlxVEaeaXkfvX9RxVOsVdirsVdirsVdirsVQWqg/V1p0DCv3HFUq&#xA;xV2KuxV2KsiWvEV60xV2KpFdpwuZF/yiR9O+KplpcnK2490JH0HfFUXirsVdirsVdirsVdirsVdi&#xA;rsVdiqhfGlpJ8v44qkmKonThW8T2r+o4qnOKuxV2KuxV2KuxV2KrJolliaNujd/DFUqOm3IfiACO&#xA;xriq/wDRjjeSRE/z96Yq19VsU+3ccv8AVH9OWKr4TpwmQIGZiRQt0riqZ4q7FUvvbbldI9PhIJf/&#xA;AGO+KofTZ/TuOJPwybH59sVTjFXYq7FXYq7FXYq7FXYq7FXYq7FULqbUtGH8xA/Gv8MVSfFUbpS1&#xA;uGb+VT+JxVNcVdirsVdirsVdirsVdiqE1MN9XDKSCpFabbHFUoxV2KtqxVgw6g1H0YqyBWDKGHQi&#xA;oxVvFVk6s0Eir9oqQPpGKpBuD74qnVlcieEE/bXZ/wCuKojFXYq7FXYq7FXYq7FXYq7FXYql2ryf&#xA;3cfzY/qGKpdiqZ6THSN3/mNB9H+3iqPxV2KuxV2KuxV2KuxV2KqV0nO2kX/JJHzG+KpFirsVdiqd&#xA;2D87WM9wOJ+jbFVfFXYqlWpWvpyeqo+B+vscVQ1vO8EgdfkR4jFU7ilSWMOhqDiq/FXYq7FXYq7F&#xA;XYq7FXYq7FUiu5vWnZx9novyGKqlrYyz/Efhj/mPf5Yqm8USRRhEFFGKrsVdirsVdirsVdirsVdi&#xA;rsVY/KnCR0/lJH3YqtxV2Kp1YQmK3Ab7TfER4VxVEYq7FVskayIUYVU9RiqS3Vs8EnE7qfst44q6&#xA;2upIHqu6n7S9jiqcQXEUyckPzHcYqqYq7FXYq7FXYq7FXYqgdSuwqmFD8TfaPgMVS6F0SQM6B1H7&#xA;JxVOre4jmTlH22IPbFVXFXYq7FXYq7FXYq7FXYq7FXYqk2pJxumPZgGH6sVQ2KuBoQR1GKo3Tp3N&#xA;38bFi4IqfvxVNcVdirsVWTQxyoUcVB/DFUnurOSBt90PRv64qpRyPGwZCVYdxiqYW+qqaLMKH+cd&#xA;PuxVHpIjiqMGHiMVbxV2KuxVxIAqTQDviqAutSVQUh+Jv5+w+WKpYSSSSak9ScVXwwvNIEQbnv4D&#xA;FU8ghSGMRr0HU+J8cVX4q7FXYq7FXYq7FXYq7FXYq7FUu1dP7t/mp/WMVS7FXYqvgf05kfsrAn5Y&#xA;qn+KuxV2KuxVzKGBDCoPUHFUuudL6tAf9gf4HFUA8bxtxdSp8DirSu6GqkqfEbYqiE1G7X9rl8xi&#xA;qoNWn7ov4/1xVptUuT0Cr8h/XFUNLPNL/eOW9u33YqsxVWt7SWc/CKL3Y9MVTe3to4E4p1P2mPU4&#xA;qq4q7FXYq7FXYq7FXYq7FXYq7FXYqhdSTlase6kN/D+OKpPirsVdiqfW784I27lRX598VVMVdirs&#xA;VdirsVWvGkg4uoYeBxVCS6VA26EofDqMVQz6VcD7JVh9xxVTOn3Y/wB1/cR/XFXDT7s/7r+8j+uK&#xA;qqaVcH7RVR95xVFQ6Zbpu9ZD77D7sVRYAAoBQDoBirsVdirsVdirsVdirsVdirsVdirsVdiq2ZOc&#xA;Tp/MCMVY/irsVdiqbaW/K24/yMR9B3xVGYq7FXYq7FXYq7FXYq7FXYq7FXYq7FXYq7FXYq7FXYq7&#xA;FXYq7FXYq7FXYq7FXYq7FUhuk4XEi+DGnyO+KqeKuAJIA3J2AxVHaS9JXT+YV+7/AG8VTTFXYq7F&#xA;XYq7FXYq7FXYq7FXYq7FXYq7FXYq7FXYq7FXYq7FXYq7FXYq7FXYq7FXYqlOqJxuA386g/SNsVQe&#xA;Kqlt/vRF/rr+vFUY0f1fUUYbJIdvp2IxVMsVdirsVdirsVdirsVdirsVdirsVdirsVdirsVdirsV&#xA;dirsVdirsVdirsVdirsVdiqB1ZKxo47Gn3/7WKoaGzkktX+EhwwKV2qO/XFVS3024WVHfioVgSK1&#xA;Oxr2xVHzQJMAGr8JqCOtcVf/2Q==</xmpGImg:image>
               </rdf:li>
            </rdf:Alt>
         </xmp:Thumbnails>
         <xmpTPg:MaxPageSize rdf:parseType="Resource">
            <stDim:w>512.000000</stDim:w>
            <stDim:h>512.000000</stDim:h>
            <stDim:unit>Pixels</stDim:unit>
         </xmpTPg:MaxPageSize>
         <xmpTPg:NPages>1</xmpTPg:NPages>
         <xmpTPg:HasVisibleTransparency>False</xmpTPg:HasVisibleTransparency>
         <xmpTPg:HasVisibleOverprint>False</xmpTPg:HasVisibleOverprint>
         <xmpTPg:PlateNames>
            <rdf:Seq>
               <rdf:li>Cyan</rdf:li>
               <rdf:li>Magenta</rdf:li>
               <rdf:li>Yellow</rdf:li>
            </rdf:Seq>
         </xmpTPg:PlateNames>
         <xmpTPg:SwatchGroups>
            <rdf:Seq>
               <rdf:li rdf:parseType="Resource">
                  <xmpG:groupName>Default Swatch Group</xmpG:groupName>
                  <xmpG:groupType>0</xmpG:groupType>
               </rdf:li>
            </rdf:Seq>
         </xmpTPg:SwatchGroups>
         <illustrator:IsFileSavedViaInstantSave>False</illustrator:IsFileSavedViaInstantSave>
         <dc:format>image/svg+xml</dc:format>
         <xmpMM:InstanceID>xmp.iid:3f2b3f42-f409-9b48-958a-822f3da0fe30</xmpMM:InstanceID>
      </rdf:Description>
   </rdf:RDF>
</x:xmpmeta>
                                                                                                    
                                                                                                    
                                                                                                    
                                                                                                    
                                                                                                    
                                                                                                    
                                                                                                    
                                                                                                    
                                                                                                    
                                                                                                    
                                                                                                    
                                                                                                    
                                                                                                    
                                                                                                    
                                                                                                    
                                                                                                    
                                                                                                    
                                                                                                    
                                                                                                    
                                                                                                    
                           
<?xpacket end="w"?>
  </metadata>
</svg>